<svg viewBox="0 0 12 12" fill="none" xmlns="http://www.w3.org/2000/svg"><path d="M6 12C5.16978 12 4.38978 11.8427 3.66 11.528C2.93022 11.2133 2.29533 10.7858 1.75533 10.2453C1.21533 9.70489 0.787778 9.07022 0.472667 8.34133C0.157556 7.61244 0 6.83267 0 6.002C0 5.17133 0.157556 4.39133 0.472667 3.662C0.787333 2.93178 1.21422 2.29644 1.75333 1.756C2.29244 1.21556 2.92733 0.787778 3.658 0.472667C4.38867 0.157556 5.16867 0 5.998 0C6.82733 0 7.60733 0.157556 8.338 0.472667C9.06867 0.787778 9.704 1.21533 10.244 1.75533C10.784 2.29533 11.2118 2.93022 11.5273 3.66C11.8429 4.38978 12.0004 5.16978 12 6V6.65933C12 7.22067 11.8071 7.69556 11.4213 8.084C11.0356 8.47245 10.5618 8.66667 10 8.66667C9.60267 8.66667 9.24044 8.55778 8.91333 8.34C8.58578 8.12222 8.34355 7.832 8.18667 7.46933C7.93333 7.83422 7.61667 8.12489 7.23667 8.34133C6.85667 8.55778 6.44444 8.66622 6 8.66667C5.25733 8.66667 4.62733 8.408 4.11 7.89067C3.59222 7.37244 3.33333 6.74222 3.33333 6C3.33333 5.25778 3.59222 4.62778 4.11 4.11C4.62778 3.59222 5.25778 3.33333 6 3.33333C6.74222 3.33333 7.37244 3.59222 7.89067 4.11C8.40889 4.62778 8.66756 5.25778 8.66667 6V6.65933C8.66667 7.02467 8.79756 7.33956 9.05933 7.604C9.32111 7.86844 9.63467 8.00044 10 8C10.3653 7.99956 10.6791 7.86756 10.9413 7.604C11.2036 7.34044 11.3342 7.02533 11.3333 6.65867V6C11.3333 4.51111 10.8167 3.25 9.78333 2.21667C8.75 1.18333 7.48889 0.666667 6 0.666667C4.51111 0.666667 3.25 1.18333 2.21667 2.21667C1.18333 3.25 0.666667 4.51111 0.666667 6C0.666667 7.48889 1.18333 8.75 2.21667 9.78333C3.25 10.8167 4.51111 11.3333 6 11.3333H9C9.09467 11.3333 9.17378 11.3653 9.23733 11.4293C9.30089 11.4933 9.33289 11.5727 9.33333 11.6673C9.33378 11.762 9.30178 11.8411 9.23733 11.9047C9.17289 11.9682 9.09378 12 9 12H6ZM6 8C6.55556 8 7.02778 7.80556 7.41667 7.41667C7.80556 7.02778 8 6.55556 8 6C8 5.44444 7.80556 4.97222 7.41667 4.58333C7.02778 4.19444 6.55556 4 6 4C5.44444 4 4.97222 4.19444 4.58333 4.58333C4.19444 4.97222 4 5.44444 4 6C4 6.55556 4.19444 7.02778 4.58333 7.41667C4.97222 7.80556 5.44444 8 6 8Z" fill="white"/></svg>