<svg width="30" height="20" viewBox="0 0 30 20" fill="none" xmlns="http://www.w3.org/2000/svg">
<path fill-rule="evenodd" clip-rule="evenodd" d="M5.40036 0.0575149H0V5.37551L5.40036 0.0575149ZM5.40036 3.91305L0 9.23105V20H5.40036V3.91305Z" fill="white"/>
<path fill-rule="evenodd" clip-rule="evenodd" d="M19.3142 0C22.4013 7.6769e-06 24.9494 0.981988 26.9586 2.94594L26.9596 2.94697C28.9865 4.8927 30 7.24374 30 10C30 12.7567 28.9861 15.1171 26.9587 17.081C24.9494 19.027 22.4011 20 19.3142 20C16.2273 20 13.6699 19.0272 11.6424 17.0813L11.642 17.0809C9.63286 15.1169 8.62831 12.7566 8.6283 10C8.6283 7.24326 9.63293 4.89189 11.6422 2.94594C13.6698 0.98198 16.2271 0 19.3142 0ZM9.04108 12.3951C9.46219 14.1118 10.3589 15.6425 11.7353 16.988C13.2695 18.4601 15.1098 19.3678 17.2597 19.7119L22.2623 14.7976C21.4257 15.2908 20.4415 15.536 19.3141 15.536C19.1117 15.536 18.9138 15.5282 18.7206 15.5123C18.6723 15.5084 18.6243 15.5039 18.5765 15.499C18.3857 15.4792 18.1995 15.4514 18.018 15.4158C17.9499 15.4024 17.8825 15.3879 17.8157 15.3723C17.6599 15.3359 17.5078 15.2933 17.3592 15.2447C17.2956 15.2239 17.2325 15.202 17.1702 15.179C17.1079 15.1559 17.0462 15.1317 16.9852 15.1064C16.8631 15.0558 16.7438 15.0007 16.6271 14.9411C16.5882 14.9212 16.5496 14.9009 16.5113 14.8801C16.4922 14.8696 16.4731 14.859 16.4541 14.8484C16.3211 14.7736 16.1917 14.6927 16.066 14.6058C16.0301 14.5809 15.9945 14.5556 15.9592 14.5298C15.9062 14.491 15.8539 14.4511 15.8023 14.4101C15.7851 14.3964 15.7679 14.3826 15.7509 14.3686C15.7168 14.3408 15.683 14.3125 15.6495 14.2836C15.6327 14.2692 15.616 14.2546 15.5994 14.2399C15.533 14.1812 15.4677 14.1205 15.4037 14.0578C15.3877 14.0422 15.3718 14.0264 15.356 14.0105C15.3243 13.9786 15.293 13.9464 15.2623 13.9139C15.2009 13.8489 15.1415 13.7827 15.0841 13.7153C15.0554 13.6815 15.0271 13.6474 14.9994 13.613C14.9717 13.5787 14.9444 13.544 14.9177 13.509C14.9044 13.4915 14.8911 13.4739 14.878 13.4563C14.8387 13.4033 14.8005 13.3497 14.7634 13.2953C14.751 13.2772 14.7388 13.259 14.7267 13.2407C14.7025 13.2042 14.6788 13.1673 14.6555 13.1302C14.6323 13.093 14.6095 13.0555 14.5873 13.0177C14.5651 12.9799 14.5433 12.9418 14.5221 12.9034C14.5114 12.8842 14.501 12.8649 14.4906 12.8456C14.3661 12.6132 14.2596 12.3697 14.1708 12.1151C14.1412 12.0303 14.1136 11.9442 14.088 11.8569C14.0752 11.8133 14.0629 11.7693 14.0511 11.725C14.0452 11.7029 14.0393 11.6807 14.0337 11.6584C13.994 11.5024 13.9604 11.3427 13.9328 11.1792C13.925 11.1325 13.9176 11.0855 13.9107 11.0382C13.8797 10.8252 13.8588 10.6061 13.8477 10.3809C13.8465 10.3559 13.8453 10.3308 13.8443 10.3056C13.8424 10.2553 13.8409 10.2047 13.8399 10.1537C13.839 10.1028 13.8384 10.0515 13.8384 10C13.8384 8.78424 14.1115 7.73586 14.6615 6.86035L9.04108 12.3951ZM19.3142 4.59459C17.7251 4.59459 16.4372 5.09011 15.4508 6.0811C14.4644 7.07208 13.9712 8.37838 13.9712 10C13.9712 11.6216 14.4644 12.928 15.4508 13.919C16.4372 14.9098 17.7251 15.4053 19.3142 15.4053C20.9033 15.4053 22.1911 14.9098 23.1775 13.919C24.1639 12.928 24.6571 11.6216 24.6571 10C24.6571 8.37838 24.1639 7.07208 23.1775 6.0811C22.1911 5.09012 20.9033 4.5946 19.3142 4.59459ZM16.3131 5.234C17.1608 4.71968 18.1627 4.46388 19.3141 4.46388C19.4153 4.46388 19.5154 4.46589 19.6143 4.46984C19.6885 4.47281 19.7621 4.47687 19.835 4.48206C19.9321 4.48899 20.0281 4.49789 20.123 4.50878C20.1704 4.51422 20.2176 4.52015 20.2645 4.52659C20.3581 4.53946 20.4506 4.55435 20.542 4.57119C20.6562 4.59224 20.7686 4.61634 20.8791 4.64361C21.0338 4.68176 21.1849 4.72604 21.3325 4.77638C21.3957 4.79795 21.4583 4.82063 21.5202 4.84445C21.5614 4.86032 21.6024 4.87668 21.6431 4.89354C21.6634 4.90197 21.6836 4.91055 21.7038 4.91923C21.7846 4.95397 21.8641 4.99075 21.9425 5.02948C21.9621 5.03916 21.9817 5.04891 22.0011 5.05884C22.04 5.0787 22.0786 5.09907 22.1169 5.11993C22.1361 5.13036 22.1551 5.14089 22.1741 5.15157C22.2122 5.17294 22.2499 5.19479 22.2873 5.21715C22.3247 5.2395 22.3618 5.26239 22.3986 5.28574C22.4354 5.3091 22.4719 5.33292 22.5081 5.35728C22.5443 5.38162 22.5802 5.40649 22.6158 5.43183C22.7227 5.50789 22.8269 5.58846 22.9283 5.67352C22.9452 5.68769 22.962 5.70201 22.9788 5.71643C23.0793 5.80298 23.1772 5.89399 23.2723 5.98955C23.3198 6.03734 23.3663 6.08585 23.4116 6.13505C23.4418 6.16785 23.4715 6.20098 23.5007 6.23441C23.5153 6.25114 23.5299 6.26793 23.5442 6.28482C23.5729 6.31855 23.6011 6.35262 23.6288 6.38697C23.6427 6.40414 23.6564 6.42138 23.67 6.43871C23.6972 6.47341 23.724 6.50841 23.7502 6.54374C23.7764 6.57905 23.8022 6.61466 23.8274 6.6506C23.8526 6.68652 23.8773 6.72276 23.9015 6.7593C23.9258 6.79585 23.9495 6.83268 23.9728 6.86984C23.996 6.90701 24.0187 6.94451 24.0409 6.9823C24.052 7.0012 24.063 7.0202 24.0739 7.03926C24.0956 7.07735 24.1169 7.11573 24.1376 7.15444C24.148 7.17382 24.1583 7.19327 24.1684 7.21281C24.2292 7.32988 24.2854 7.44977 24.3372 7.5724C24.3458 7.59286 24.3544 7.61339 24.3627 7.634C24.3795 7.67521 24.3958 7.71671 24.4116 7.75853C24.4669 7.90485 24.516 8.05495 24.5591 8.20879C24.5714 8.25275 24.5833 8.297 24.5946 8.34156C24.6229 8.45299 24.6481 8.56633 24.6703 8.68158C24.688 8.77378 24.7037 8.8672 24.7175 8.96184C24.721 8.98549 24.7243 9.00921 24.7275 9.03301C24.7402 9.12826 24.7511 9.22472 24.76 9.32239C24.7666 9.39565 24.7721 9.46959 24.7766 9.54421C24.7825 9.64369 24.7863 9.74437 24.7883 9.84626C24.7893 9.8972 24.7898 9.94845 24.7898 10C24.7898 11.1961 24.5255 12.2304 23.9929 13.0974L29.5839 7.605C29.159 5.89437 28.2552 4.37364 26.8683 3.04177L26.8676 3.04118L26.8651 3.03875C25.3383 1.54635 23.4974 0.628727 21.3386 0.285041L16.3131 5.234Z" fill="white"/>
</svg>
