<svg width="702" height="360" viewBox="0 0 702 360" fill="none" xmlns="http://www.w3.org/2000/svg">
<rect opacity="0.05" x="342.5" y="-110" width="734" height="183" rx="65.5" stroke="white"/>
<rect opacity="0.05" x="0.5" y="147" width="734" height="323" rx="65.5" stroke="white"/>
<path d="M225 168.167C225 124.72 260.22 89.5 303.667 89.5H736.333C779.78 89.5 815 124.72 815 168.167V443.5H225V168.167Z" fill="#111111"/>
<path d="M264.333 164.233C264.333 144.683 280.183 128.833 299.733 128.833H740.267C759.818 128.833 775.667 144.683 775.667 164.234V231.1C775.667 250.651 759.818 266.5 740.267 266.5H299.734C280.183 266.5 264.333 250.651 264.333 231.1V164.233Z" fill="#151515"/>
<path d="M264.333 321.567C264.333 302.016 280.183 286.167 299.733 286.167H740.267C759.818 286.167 775.667 302.016 775.667 321.567V388.433C775.667 407.984 759.818 423.833 740.267 423.833H299.734C280.183 423.833 264.333 407.984 264.333 388.433V321.567Z" fill="#151515"/>
<circle cx="308.583" cy="197.667" r="4.91667" fill="#212121"/>
<circle cx="326.283" cy="197.667" r="4.91667" fill="#212121"/>
<circle cx="343.984" cy="197.667" r="4.91667" fill="#212121"/>
<circle cx="4.91667" cy="4.91667" r="4.91667" transform="matrix(-1 0 0 1 700.933 350.083)" fill="#212121"/>
<rect x="356.767" y="192.75" width="243.867" height="9.83333" rx="4.91667" fill="#212121"/>
<rect width="243.867" height="9.83333" rx="4.91667" transform="matrix(-1 0 0 1 683.233 350.083)" fill="#212121"/>
<rect x="608.5" y="192.75" width="127.833" height="9.83333" rx="4.91667" fill="#212121"/>
<rect width="127.833" height="9.83333" rx="4.91667" transform="matrix(-1 0 0 1 431.5 350.083)" fill="#212121"/>
<path d="M60 250.278C60 226.1 79.6398 206.5 103.867 206.5H345.133C369.36 206.5 389 226.1 389 250.278V403.5H60V250.278Z" fill="#111111"/>
<path d="M81.9331 248.089C81.9331 237.209 90.771 228.389 101.673 228.389H347.326C358.229 228.389 367.066 237.209 367.066 248.089V285.3C367.066 296.18 358.229 305 347.326 305H101.673C90.771 305 81.9331 296.18 81.9331 285.3V248.089Z" fill="#151515"/>
<path d="M81.9331 335.644C81.9331 324.764 90.771 315.944 101.673 315.944H347.326C358.229 315.944 367.066 324.764 367.066 335.644V372.855C367.066 383.735 358.229 392.555 347.326 392.555H101.673C90.771 392.555 81.9331 383.735 81.9331 372.855V335.644Z" fill="#151515"/>
<ellipse cx="106.608" cy="266.695" rx="2.74167" ry="2.73611" fill="#212121"/>
<ellipse cx="2.74167" cy="2.73611" rx="2.74167" ry="2.73611" transform="matrix(-1 0 0 1 345.133 351.514)" fill="#212121"/>
<ellipse cx="116.478" cy="266.695" rx="2.74167" ry="2.73611" fill="#212121"/>
<ellipse cx="2.74167" cy="2.73611" rx="2.74167" ry="2.73611" transform="matrix(-1 0 0 1 335.263 351.514)" fill="#212121"/>
<ellipse cx="126.348" cy="266.695" rx="2.74167" ry="2.73611" fill="#212121"/>
<ellipse cx="2.74167" cy="2.73611" rx="2.74167" ry="2.73611" transform="matrix(-1 0 0 1 325.394 351.514)" fill="#212121"/>
<rect x="133.477" y="263.958" width="135.987" height="5.47222" rx="2.73611" fill="#212121"/>
<rect width="135.987" height="5.47222" rx="2.73611" transform="matrix(-1 0 0 1 315.523 351.514)" fill="#212121"/>
<rect x="273.85" y="263.958" width="71.2833" height="5.47222" rx="2.73611" fill="#212121"/>
<rect width="71.2833" height="5.47222" rx="2.73611" transform="matrix(-1 0 0 1 175.15 351.514)" fill="#212121"/>
</svg>